<?xml version="1.0" encoding="utf-8"?>
<!-- Generator: Adobe Illustrator 26.3.1, SVG Export Plug-In . SVG Version: 6.00 Build 0)  -->
<svg version="1.1" id="Layer_1" xmlns="http://www.w3.org/2000/svg" xmlns:xlink="http://www.w3.org/1999/xlink" x="0px" y="0px"
	 viewBox="0 0 300 100" style="enable-background:new 0 0 300 100;" xml:space="preserve">
<style type="text/css">
	.st0{fill:#063891;}
	.st1{fill:none;}
	.st2{fill:#FFFFFF;}
	.st3{fill:#A7A7A8;}
</style>
<g>
	<path d="M95.5,63.9l-9.6-28.1h4.8l7.8,22.8h0.2l7.8-22.8h4.7l-9.6,28.1H95.5z"/>
	<path d="M115.8,63.9V35.8h18.8V40h-14.1v7.7h12.2v4.2h-12.2v7.9h14.1v4.2H115.8z"/>
	<path d="M157.5,63.9l-4.2-10.6h-0.1h-8v10.6h-4.6V35.8h13.1c2.3,0,4,0.3,5.2,1c1.2,0.7,2,1.7,2.4,2.9c0.4,1.2,0.6,2.8,0.6,4.8
		c0,1.9-0.3,3.6-0.8,5c-0.6,1.5-1.7,2.5-3.3,3.1l4.6,11.2H157.5z M155.5,48.7c0.8-0.3,1.3-0.7,1.5-1.4c0.2-0.6,0.3-1.6,0.3-2.8
		c0-1.3-0.1-2.3-0.3-2.9c-0.2-0.6-0.7-1-1.4-1.3c-0.7-0.3-1.9-0.4-3.6-0.4h-6.7v9.2h6.6C153.5,49.1,154.7,49,155.5,48.7z"/>
	<path d="M174.2,63.9V40.1h-8.5v-4.3h21.7v4.3h-8.5v23.8H174.2z"/>
	<path d="M192.2,63.9V35.8h4.6v28.1H192.2z"/>
	<path d="M218.5,64.1c-1.3,0.1-2.5,0.2-3.6,0.2c-3.4,0-5.9-0.4-7.5-1.2c-1.6-0.8-2.7-2.2-3.2-4.1c-0.5-2-0.8-5-0.8-9.1
		s0.3-7.1,0.8-9.1c0.5-2,1.6-3.3,3.2-4.1c1.6-0.8,4.1-1.2,7.5-1.2c1.1,0,2.3,0.1,3.6,0.2c1.3,0.1,2.3,0.3,3.1,0.5V40
		c-2.2-0.3-4-0.4-5.6-0.4c-2.7,0-4.5,0.2-5.6,0.6c-1,0.4-1.7,1.3-2,2.6c-0.3,1.3-0.5,3.6-0.5,7s0.2,5.7,0.5,7c0.3,1.3,1,2.2,2,2.6
		c1,0.4,2.9,0.6,5.6,0.6c2.1,0,4-0.1,5.8-0.4v4C220.9,63.8,219.8,64,218.5,64.1z"/>
	<path d="M227.7,63.9V35.8h18.8V40h-14.1v7.7h12.2v4.2h-12.2v7.9h14.1v4.2H227.7z"/>
	<path class="st0" d="M281,63.9l-2.5-6.8h-11.9l-2.4,6.8h-4.7l10.1-28.1h6l10.1,28.1H281z M272.6,40.4h-0.2L267.9,53h9.2L272.6,40.4
		z"/>
	<path class="st0" d="M290.4,63.9V35.8h4.6v28.1H290.4z"/>
	<g>
		<polygon class="st1" points="22.1,26 6.8,50.7 22.1,26 		"/>
		<path class="st0" d="M6.8,19.9v30.8L22.1,26l0,0l1.7-2.8l15.6,24.9l8.2-12.6l24,42.9V19.9c0-1.8-1.4-3.2-3.2-3.2H10
			C8.2,16.8,6.8,18.2,6.8,19.9z"/>
		<path class="st2" d="M48.3,49.8L46,52.4l1.1,7.6l-7.7-11.8L23.8,23.2L22.1,26L6.8,50.7v27.6c0,1.8,1.4,3.2,3.2,3.2h58.4
			c1.8,0,3.2-1.4,3.2-3.2v0l-24-42.9L48.3,49.8z M13.8,67.9l-6-10.4h3.6l2.4,4.2l6,10.4l6-10.4l2.4-4.2h3.6l-6,10.4l-6,10.4
			L13.8,67.9z M44.7,78.3l-2.4-4.2l-6-10.4l-6,10.4l-2.4,4.2h-3.6l6-10.4l6-10.4l6,10.4l6,10.4H44.7z"/>
		<polygon class="st3" points="46,52.4 48.3,49.8 47.6,35.5 39.4,48.1 47.1,59.9 		"/>
		<polygon class="st0" points="36.3,57.5 30.3,67.9 24.3,78.3 27.8,78.3 30.3,74.1 36.3,63.7 42.3,74.1 44.7,78.3 48.3,78.3 
			42.3,67.9 		"/>
		<polygon class="st0" points="31.8,57.5 28.3,57.5 25.8,61.7 19.8,72.1 13.8,61.7 11.4,57.5 7.8,57.5 13.8,67.9 19.8,78.3 
			25.8,67.9 		"/>
	</g>
</g>
</svg>
